<svg xmlns="http://www.w3.org/2000/svg" viewBox="0 0 96 96" fill="none">
  <defs>
    <radialGradient id="core" cx="0" cy="0" r="1" gradientUnits="userSpaceOnUse" gradientTransform="translate(48 48) rotate(90) scale(42)">
      <stop stop-color="#00F5D4" stop-opacity="0.32"/>
      <stop offset="0.58" stop-color="#78FF39" stop-opacity="0.12"/>
      <stop offset="1" stop-color="#03050D"/>
    </radialGradient>
    <linearGradient id="ring" x1="12" y1="15" x2="83" y2="82">
      <stop stop-color="#00F5D4"/>
      <stop offset="0.48" stop-color="#785AFF"/>
      <stop offset="1" stop-color="#F4C95D"/>
    </linearGradient>
    <linearGradient id="mark" x1="30" y1="24" x2="66" y2="72">
      <stop stop-color="#F4C95D"/>
      <stop offset="0.5" stop-color="#00F5D4"/>
      <stop offset="1" stop-color="#78FF39"/>
    </linearGradient>
    <filter id="glow" x="-20" y="-20" width="136" height="136" color-interpolation-filters="sRGB">
      <feGaussianBlur stdDeviation="4" result="blur"/>
      <feMerge>
        <feMergeNode in="blur"/>
        <feMergeNode in="SourceGraphic"/>
      </feMerge>
    </filter>
  </defs>
  <circle cx="48" cy="48" r="43" fill="url(#core)" stroke="url(#ring)" stroke-width="3"/>
  <circle cx="48" cy="48" r="31" stroke="white" stroke-opacity="0.12" stroke-width="1"/>
  <path d="M48 17C58.8 29.1 70 45.8 75 67.5C57.6 62.9 38.3 62.9 21 67.5C26 45.8 37.2 29.1 48 17Z" fill="url(#mark)" opacity="0.94" filter="url(#glow)"/>
  <path d="M48 29L60.4 58.4H35.6L48 29Z" fill="#03050D" fill-opacity="0.86"/>
  <circle cx="48" cy="48" r="5.5" fill="#00F5D4"/>
  <path d="M22 32C32.2 26.1 42.5 24.2 53 26.2" stroke="#00F5D4" stroke-opacity="0.35" stroke-width="2" stroke-linecap="round"/>
  <path d="M74 64C61.9 70.3 49.7 71.3 37.2 67" stroke="#F4C95D" stroke-opacity="0.38" stroke-width="2" stroke-linecap="round"/>
</svg>
